<svg width="50" height="50" viewBox="0 0 50 50" fill="none" xmlns="http://www.w3.org/2000/svg">
<circle cx="25" cy="25" r="25" fill="#E4E0D5"/>
<path fill-rule="evenodd" clip-rule="evenodd" d="M25 38C17.8203 38 12 32.1797 12 25C12 17.8203 17.8203 12 25 12C32.1797 12 38 17.8203 38 25C38 32.1797 32.1797 38 25 38ZM25 35.6364C30.8743 35.6364 35.6364 30.8743 35.6364 25C35.6364 19.1257 30.8743 14.3637 25 14.3637C19.1257 14.3637 14.3636 19.1257 14.3636 25C14.3636 30.8743 19.1257 35.6364 25 35.6364ZM28.8916 20.6189L22.6363 26.8741L19.9265 24.1643L18.2552 25.8357L22.6363 30.2168L30.5629 22.2902L28.8916 20.6189Z" fill="black"/>
</svg>
