<svg width="40" height="30" viewBox="0 0 56 26" fill="none" xmlns="http://www.w3.org/2000/svg">
<path fill-rule="evenodd" clip-rule="evenodd" d="M23 20.5V25.5H13C6.09644 25.5 0.5 19.9036 0.5 13C0.5 6.09644 6.09644 0.5 13 0.5H23V5.5H13C8.85786 5.5 5.5 8.85786 5.5 13C5.5 17.1421 8.85786 20.5 13 20.5H23ZM33 5.5V0.5H43C49.9036 0.5 55.5 6.09644 55.5 13C55.5 19.9036 49.9036 25.5 43 25.5H33V20.5H43C47.1421 20.5 50.5 17.1421 50.5 13C50.5 8.85786 47.1421 5.5 43 5.5H33ZM15.5 10.5V15.5H40.5V10.5H15.5Z" fill="black"/>
</svg>
