<svg width="30" height="30" viewBox="0 0 50 50" fill="none" xmlns="http://www.w3.org/2000/svg">
<path fill-rule="evenodd" clip-rule="evenodd" d="M33.3334 4.16663H16.6667C9.76313 4.16663 4.16669 9.76307 4.16669 16.6666V33.3333C4.16669 40.2369 9.76313 45.8333 16.6667 45.8333H33.3334C40.2369 45.8333 45.8334 40.2369 45.8334 33.3333V16.6666C45.8334 9.76307 40.2369 4.16663 33.3334 4.16663ZM8.33335 16.6666C8.33335 12.0643 12.0643 8.33329 16.6667 8.33329H33.3334C37.9357 8.33329 41.6667 12.0643 41.6667 16.6666V33.3333C41.6667 37.9357 37.9357 41.6666 33.3334 41.6666H16.6667C12.0643 41.6666 8.33335 37.9357 8.33335 33.3333V16.6666ZM25 35.4166C19.2471 35.4166 14.5834 30.7529 14.5834 25C14.5834 19.247 19.2471 14.5833 25 14.5833C30.753 14.5833 35.4167 19.247 35.4167 25C35.4167 30.7529 30.753 35.4166 25 35.4166ZM25 31.25C28.4518 31.25 31.25 28.4517 31.25 25C31.25 21.5482 28.4518 18.75 25 18.75C21.5482 18.75 18.75 21.5482 18.75 25C18.75 28.4517 21.5482 31.25 25 31.25ZM37.5 14.5833C37.5 15.7339 36.5673 16.6666 35.4167 16.6666C34.2661 16.6666 33.3334 15.7339 33.3334 14.5833C33.3334 13.4327 34.2661 12.5 35.4167 12.5C36.5673 12.5 37.5 13.4327 37.5 14.5833Z" fill="black"/>
</svg>
