<svg width="30" height="30" viewBox="0 0 50 40" fill="none" xmlns="http://www.w3.org/2000/svg">
<path fill-rule="evenodd" clip-rule="evenodd" d="M20.4545 32V40H11.3636C5.08767 40 0 31.0457 0 20C0 8.9543 5.08767 0 11.3636 0H20.4545V8H11.3636C7.59806 8 4.54545 13.3726 4.54545 20C4.54545 26.6274 7.59806 32 11.3636 32H20.4545ZM29.5455 8V0H38.6364C44.9124 0 50 8.9543 50 20C50 31.0457 44.9124 40 38.6364 40H29.5455V32H38.6364C42.402 32 45.4546 26.6274 45.4546 20C45.4546 13.3726 42.402 8 38.6364 8H29.5455ZM36.3636 16H13.6364V24H36.3636V16Z" fill="black"/>
</svg>
