<svg width="30" height="30" viewBox="0 0 50 50" fill="none" xmlns="http://www.w3.org/2000/svg">
<path fill-rule="evenodd" clip-rule="evenodd" d="M8.33332 4.16663H41.6667C43.9678 4.16663 45.8333 6.03211 45.8333 8.33329V41.6666C45.8333 43.9678 43.9678 45.8333 41.6667 45.8333H8.33332C6.03214 45.8333 4.16666 43.9678 4.16666 41.6666V8.33329C4.16666 6.03211 6.03214 4.16663 8.33332 4.16663ZM8.33332 8.33329V41.6666H41.6667V8.33329H8.33332ZM27.0833 18.75C26.0047 18.75 24.8651 19.0797 23.8586 19.6919L22.9167 18.75H20.8333V33.3333H25V25C25 23.8005 26.2374 22.9166 27.0833 22.9166H29.1667C30.0126 22.9166 31.25 23.8005 31.25 25V33.3333H35.4167V25C35.4167 21.1399 32.0707 18.75 29.1667 18.75H27.0833ZM16.6667 16.6666C17.8172 16.6666 18.75 15.7339 18.75 14.5833C18.75 13.4327 17.8172 12.5 16.6667 12.5C15.5161 12.5 14.5833 13.4327 14.5833 14.5833C14.5833 15.7339 15.5161 16.6666 16.6667 16.6666ZM14.5833 18.75V33.3333H18.75V18.75H14.5833Z" fill="black"/>
</svg>
