<svg width="70" height="70" viewBox="0 0 70 70" fill="none" xmlns="http://www.w3.org/2000/svg">
<circle cx="35" cy="35" r="35" fill="#EBDCD1"/>
<path fill-rule="evenodd" clip-rule="evenodd" d="M35 50C26.7157 50 20 43.2843 20 35C20 26.7157 26.7157 20 35 20C43.2843 20 50 26.7157 50 35C50 43.2843 43.2843 50 35 50ZM35 47.2727C41.7781 47.2727 47.2727 41.778 47.2727 35C47.2727 28.2219 41.7781 22.7273 35 22.7273C28.222 22.7273 22.7273 28.2219 22.7273 35C22.7273 41.778 28.222 47.2727 35 47.2727ZM39.4903 29.9449L32.2727 37.1624L29.1461 34.0358L27.2176 35.9642L32.2727 41.0194L41.4188 31.8733L39.4903 29.9449Z" fill="black"/>
</svg>
