<svg width="70" height="70" viewBox="0 0 70 70" fill="none" xmlns="http://www.w3.org/2000/svg">
<circle cx="35" cy="35" r="35" fill="#CFDEE2"/>
<path fill-rule="evenodd" clip-rule="evenodd" d="M35 21.25C42.5939 21.25 48.75 27.4061 48.75 35C48.75 42.5939 42.5939 48.75 35 48.75C27.4061 48.75 21.25 42.5939 21.25 35C21.25 27.4061 27.4061 21.25 35 21.25ZM46.1515 36.4955C44.8263 37.1848 43.0809 37.7612 41.099 38.1586C40.8173 41.0361 40.151 43.5762 39.1818 45.4471C42.8807 43.9652 45.6095 40.5757 46.1515 36.4955ZM38.7329 36.0056C38.7442 35.6746 38.75 35.3392 38.75 35C38.75 28.73 36.758 23.75 35 23.75C33.242 23.75 31.25 28.73 31.25 35C31.25 35.3587 31.2565 35.7132 31.2691 36.0628C32.4418 36.1854 33.6947 36.25 35 36.25C36.2851 36.25 37.5459 36.1594 38.7329 36.0056ZM41.2453 35.5677C41.2484 35.3793 41.25 35.1901 41.25 35C41.25 30.8405 40.493 27.0841 39.1818 24.5529C42.902 26.0434 45.641 29.4635 46.1606 33.5752C45.5724 34.2354 43.7171 35.0197 41.2453 35.5677ZM31.4736 38.5967C32.595 38.6977 33.7761 38.75 35 38.75C36.2042 38.75 37.3906 38.6817 38.5316 38.5552C37.9678 43.0521 36.4087 46.25 35 46.25C33.5956 46.25 32.0418 43.0718 31.4736 38.5967ZM28.7569 35.6878C28.0395 35.5447 27.3708 35.3761 26.7603 35.1844C25.2098 34.6975 24.1965 34.1007 23.8321 33.6343C24.3328 29.4962 27.0801 26.0505 30.8182 24.5529C29.507 27.0841 28.75 30.8405 28.75 35C28.75 35.2305 28.7523 35.4598 28.7569 35.6878ZM28.9114 38.2635C29.199 41.0979 29.8608 43.599 30.8182 45.4471C27.1835 43.9909 24.4855 40.6927 23.8787 36.7072C25.1831 37.3866 26.9042 37.9146 28.9114 38.2635Z" fill="black"/>
</svg>
