<svg width="50" height="50" viewBox="0 0 50 50" fill="none" xmlns="http://www.w3.org/2000/svg">
<path fill-rule="evenodd" clip-rule="evenodd" d="M45.8333 41.6667V27.0833H41.6666V41.6667H8.33329V8.33332H22.9166V4.16666H8.33329C6.03211 4.16666 4.16663 6.03214 4.16663 8.33332V41.6667C4.16663 43.9678 6.03211 45.8333 8.33329 45.8333H41.6666C43.9678 45.8333 45.8333 43.9678 45.8333 41.6667ZM39.9543 5.67379C38.9994 4.71128 37.6918 4.16666 36.3278 4.16666C34.9653 4.16666 33.6591 4.71005 32.6987 5.6763L15.2635 23.1113C13.7055 24.484 12.6842 26.5267 12.5067 28.7235L12.5 35.4215V37.5048H21.1137C23.4768 37.3428 25.5396 36.3114 26.9948 34.6328L44.3312 17.3038C45.293 16.342 45.8334 15.0375 45.8334 13.6772C45.8334 12.317 45.293 11.0125 44.3312 10.0507L39.9543 5.67379ZM20.9666 33.3434C22.0796 33.2646 23.1156 32.7466 23.9474 31.795L36.5764 19.1661L30.8383 13.4276L18.1168 26.145C17.2728 26.8915 16.7506 27.9359 16.6666 28.8913V33.3395L20.9666 33.3434ZM33.7851 10.4818L39.5227 16.2198L41.3849 14.3575C41.5654 14.1771 41.6667 13.9324 41.6667 13.6772C41.6667 13.4221 41.5654 13.1774 41.3849 12.9969L37.0023 8.61427C36.8239 8.43446 36.5811 8.33332 36.3278 8.33332C36.0745 8.33332 35.8316 8.43446 35.6532 8.61427L33.7851 10.4818Z" fill="black"/>
</svg>
