<svg width="30" height="30" viewBox="0 0 50 50" fill="none" xmlns="http://www.w3.org/2000/svg">
<path fill-rule="evenodd" clip-rule="evenodd" d="M25 50C11.1929 50 0 38.8071 0 25C0 11.1929 11.1929 0 25 0C38.8071 0 50 11.1929 50 25C50 38.8071 38.8071 50 25 50ZM41.8171 36.6469C44.1105 33.3416 45.4546 29.3278 45.4546 25C45.4546 13.7033 36.2967 4.54546 25 4.54546C13.7033 4.54546 4.54547 13.7033 4.54547 25C4.54547 29.3278 5.88952 33.3416 8.18298 36.6469C10.7408 33.2683 16.7514 31.8182 25 31.8182C33.2486 31.8182 39.2592 33.2683 41.8171 36.6469ZM38.5561 40.3177C37.8909 37.9258 33.1122 36.3636 25 36.3636C16.8878 36.3636 12.1091 37.9258 11.4439 40.3176C15.053 43.514 19.7999 45.4546 25 45.4546C30.2002 45.4546 34.9471 43.514 38.5561 40.3177ZM25 11.3636C19.4979 11.3636 15.9091 15.354 15.9091 20.4546C15.9091 28.244 19.911 31.8182 25 31.8182C30.0411 31.8182 34.0909 28.3628 34.0909 20.9091C34.0909 15.7309 30.4868 11.3636 25 11.3636ZM20.4545 20.4545C20.4545 25.6119 22.3141 27.2727 25 27.2727C27.6766 27.2727 29.5454 25.6782 29.5454 20.9091C29.5454 18.0691 27.7628 15.9091 25 15.9091C22.1221 15.9091 20.4545 17.7632 20.4545 20.4545Z" fill="black"/>
</svg>
