<svg width="30" height="30" viewBox="0 0 50 50" fill="none" xmlns="http://www.w3.org/2000/svg">
<path fill-rule="evenodd" clip-rule="evenodd" d="M40.1277 45.2226L45.1667 40.1833L43.392 33.7356L44.1651 31.8889L50 28.5964V21.4702L44.1817 18.1639L43.4215 16.3205L45.2185 9.86944L40.1759 4.83393L33.7279 6.60821L31.8855 5.83567L28.5928 0H21.4669L18.1607 5.81855L16.3178 6.57863L9.86814 4.77933L4.83342 9.81429L6.60791 16.2636L5.8354 18.1062L0 21.399V28.5232L5.81304 31.8369L6.57391 33.6818L4.7772 40.1318L9.81384 45.1687L16.2629 43.3941L18.1055 44.1667L21.3983 50H28.5224L31.8335 44.1865L33.678 43.4258L40.1277 45.2226ZM40.5742 28.6959L38.5929 33.4282L40.0823 38.8394L38.7905 40.1313L33.391 38.6271L28.6567 40.5797L25.8803 45.4543H24.0521L21.2987 40.5765L16.5717 38.5945L11.1579 40.0842L9.86826 38.7945L11.3724 33.3948L9.42006 28.6607L4.54547 25.882V24.0535L9.42524 21.2998L11.4073 16.5725L9.91764 11.1584L11.2046 9.87137L16.604 11.3777L21.3399 9.4244L24.1121 4.54565H25.9385L28.692 9.42565L33.4191 11.4078L38.834 9.91777L40.1269 11.2088L38.623 16.6075L40.576 21.3431L45.4546 24.1154V25.9419L40.5742 28.6959ZM25 34.0925C19.9792 34.0925 15.9091 30.0222 15.9091 25.0012C15.9091 19.9802 19.9792 15.9098 25 15.9098C30.0207 15.9098 34.0909 19.9802 34.0909 25.0012C34.0909 30.0222 30.0207 34.0925 25 34.0925ZM29.5454 25.0011C29.5454 27.5116 27.5104 29.5468 25 29.5468C22.4896 29.5468 20.4545 27.5116 20.4545 25.0011C20.4545 22.4906 22.4896 20.4555 25 20.4555C27.5104 20.4555 29.5454 22.4906 29.5454 25.0011Z" fill="black"/>
</svg>
