<svg width="45" height="45" viewBox="0 0 45 45" fill="none" xmlns="http://www.w3.org/2000/svg">
<circle cx="22.5" cy="22.5" r="22.5" fill="white"/>
<path fill-rule="evenodd" clip-rule="evenodd" d="M24.1667 16.5C24.1667 16.8113 24.1995 17.115 24.2619 17.4078L18.7684 20.1546C17.9739 19.2428 16.8043 18.6666 15.5 18.6666C13.1068 18.6666 11.1667 20.6067 11.1667 23C11.1667 25.3932 13.1068 27.3333 15.5 27.3333C16.8043 27.3333 17.9739 26.7571 18.7684 25.8453L24.2619 28.5921C24.1995 28.8849 24.1667 29.1886 24.1667 29.5C24.1667 31.8932 26.1068 33.8333 28.5 33.8333C30.8932 33.8333 32.8333 31.8932 32.8333 29.5C32.8333 27.1067 30.8932 25.1666 28.5 25.1666C27.1957 25.1666 26.0261 25.7428 25.2316 26.6546L19.7381 23.9078C19.8005 23.615 19.8333 23.3113 19.8333 23C19.8333 22.6886 19.8005 22.3849 19.7381 22.0921L25.2316 19.3453C26.0261 20.2571 27.1957 20.8333 28.5 20.8333C30.8932 20.8333 32.8333 18.8932 32.8333 16.5C32.8333 14.1067 30.8932 12.1666 28.5 12.1666C26.1068 12.1666 24.1667 14.1067 24.1667 16.5ZM17.6667 23C17.6667 24.1966 16.6966 25.1666 15.5 25.1666C14.3034 25.1666 13.3333 24.1966 13.3333 23C13.3333 21.8033 14.3034 20.8333 15.5 20.8333C16.6966 20.8333 17.6667 21.8033 17.6667 23ZM28.5 18.6666C29.6966 18.6666 30.6667 17.6966 30.6667 16.5C30.6667 15.3033 29.6966 14.3333 28.5 14.3333C27.3034 14.3333 26.3333 15.3033 26.3333 16.5C26.3333 17.6966 27.3034 18.6666 28.5 18.6666ZM30.6667 29.5C30.6667 30.6966 29.6966 31.6666 28.5 31.6666C27.3034 31.6666 26.3333 30.6966 26.3333 29.5C26.3333 28.3033 27.3034 27.3333 28.5 27.3333C29.6966 27.3333 30.6667 28.3033 30.6667 29.5Z" fill="black"/>
</svg>
