<svg width="30" height="30" viewBox="0 0 50 50" fill="none" xmlns="http://www.w3.org/2000/svg">
<path fill-rule="evenodd" clip-rule="evenodd" d="M30 10C30 10.7186 30.0758 11.4194 30.2198 12.095L17.5423 18.4337C15.7091 16.3297 13.0098 15 10 15C4.47715 15 0 19.4772 0 25C0 30.5228 4.47715 35 10 35C13.0098 35 15.7091 33.6703 17.5424 31.5663L30.2198 37.905C30.0758 38.5806 30 39.2814 30 40C30 45.5229 34.4772 50 40 50C45.5228 50 50 45.5229 50 40C50 34.4772 45.5228 30 40 30C36.9902 30 34.2909 31.3297 32.4576 33.4337L19.7802 27.095C19.9242 26.4194 20 25.7186 20 25C20 24.2814 19.9242 23.5806 19.7802 22.905L32.4576 16.5663C34.2909 18.6703 36.9902 20 40 20C45.5228 20 50 15.5228 50 10C50 4.47715 45.5228 0 40 0C34.4772 0 30 4.47715 30 10ZM15 25C15 27.7614 12.7614 30 10 30C7.23858 30 5 27.7614 5 25C5 22.2386 7.23858 20 10 20C12.7614 20 15 22.2386 15 25ZM40 15C42.7614 15 45 12.7614 45 10C45 7.23858 42.7614 5 40 5C37.2386 5 35 7.23858 35 10C35 12.7614 37.2386 15 40 15ZM45 40C45 42.7614 42.7614 45 40 45C37.2386 45 35 42.7614 35 40C35 37.2386 37.2386 35 40 35C42.7614 35 45 37.2386 45 40Z" fill="black"/>
</svg>
