<svg width="30" height="30" viewBox="0 0 50 50" fill="none" xmlns="http://www.w3.org/2000/svg">
<path fill-rule="evenodd" clip-rule="evenodd" d="M45.8333 24.9981C45.8333 21.493 43.4783 18.7481 39.5833 18.7481H33.1812C33.1999 18.697 33.2192 18.6444 33.2392 18.5904C33.2971 18.4338 33.4602 18.0038 33.6187 17.5861C33.759 17.2164 33.8956 16.8563 33.9522 16.7042C34.3484 15.641 34.6374 14.7843 34.8713 13.9359C35.2248 12.6536 35.4167 11.4984 35.4167 10.4148C35.4167 7.34812 33.5247 5.44338 30.7256 4.62831C29.4631 4.26069 28.3642 4.1646 27.0833 4.1648H26.0844L25.4589 4.94372C24.7524 5.82354 23.3648 7.40913 21.7651 9.23718L21.7649 9.23733L21.7646 9.23771C18.8131 12.6104 15.1394 16.8083 13.6883 18.9218C13.3117 18.81 12.9129 18.7499 12.5 18.7499H8.33333C6.03215 18.7499 4.16667 20.6154 4.16667 22.9166V41.6666C4.16667 43.9678 6.03215 45.8333 8.33333 45.8333H12.5C13.9315 45.8333 15.1944 45.1114 15.9445 44.0118C16.5765 44.4206 17.2817 44.7618 18.0482 45.036C19.803 45.6639 21.5434 45.8567 22.9883 45.8302L37.5 45.8315C43.2399 45.8315 45.8333 37.3806 45.8333 24.9981ZM19.4518 41.1129C17.6083 40.4533 16.6667 39.3778 16.6667 37.4981V22.9166V22.9148C16.6667 22.4144 16.7592 21.9713 16.9619 21.4981C17.3259 20.6481 20.629 16.8797 23.7597 13.3079L23.7597 13.3079C25.3755 11.4644 26.9454 9.6734 28.0416 8.36299C28.5654 8.40228 29.0591 8.48278 29.5607 8.62883C30.7545 8.97646 31.25 9.47528 31.25 10.4148C31.25 11.0743 31.1165 11.878 30.8545 12.8286C30.6586 13.5389 30.405 14.2906 30.0478 15.2495C29.9971 15.3856 29.8706 15.7189 29.7361 16.0734L29.736 16.0738C29.572 16.5058 29.3962 16.9692 29.3312 17.1451C29.0603 17.8777 28.8818 18.417 28.7597 18.9071C28.2407 20.9905 28.7614 22.9148 31.25 22.9148H39.5833C41.0234 22.9148 41.6667 23.6646 41.6667 24.9981C41.6667 34.9789 39.6148 41.6648 37.5 41.6648H22.9167L22.8397 41.6661C21.9279 41.6824 20.6471 41.5406 19.4518 41.1129ZM8.33333 41.6666V22.9166H12.5V41.6666H8.33333Z" fill="black"/>
</svg>
