<svg width="45" height="45" viewBox="0 0 45 45" fill="none" xmlns="http://www.w3.org/2000/svg">
<circle cx="22.5" cy="22.5" r="22.5" fill="white"/>
<path fill-rule="evenodd" clip-rule="evenodd" d="M23 33.9167C16.4186 33.9167 11.0833 28.5814 11.0833 22C11.0833 15.4186 16.4186 10.0834 23 10.0834C29.5814 10.0834 34.9167 15.4186 34.9167 22C34.9167 28.5814 29.5814 33.9167 23 33.9167ZM23 31.75C28.3848 31.75 32.75 27.3848 32.75 22C32.75 16.6153 28.3848 12.25 23 12.25C17.6152 12.25 13.25 16.6153 13.25 22C13.25 27.3848 17.6152 31.75 23 31.75ZM24.0833 25.25C24.0833 27.045 25.5384 28.5 27.3333 28.5C29.1283 28.5 30.5833 27.045 30.5833 25.25C30.5833 23.4551 29.1283 22 27.3333 22C25.5384 22 24.0833 23.4551 24.0833 25.25ZM27.3333 26.3334C27.9316 26.3334 28.4167 25.8483 28.4167 25.25C28.4167 24.6517 27.9316 24.1667 27.3333 24.1667C26.735 24.1667 26.25 24.6517 26.25 25.25C26.25 25.8483 26.735 26.3334 27.3333 26.3334ZM15.4167 18.75C15.4167 20.545 16.8717 22 18.6667 22C20.4616 22 21.9167 20.545 21.9167 18.75C21.9167 16.9551 20.4616 15.5 18.6667 15.5C16.8717 15.5 15.4167 16.9551 15.4167 18.75ZM18.6667 19.8334C19.265 19.8334 19.75 19.3483 19.75 18.75C19.75 18.1517 19.265 17.6667 18.6667 17.6667C18.0684 17.6667 17.5833 18.1517 17.5833 18.75C17.5833 19.3483 18.0684 19.8334 18.6667 19.8334ZM20.9612 28.5L27.4612 15.5H25.0388L18.5388 28.5H20.9612Z" fill="black"/>
</svg>
