<svg width="45" height="45" viewBox="0 0 45 45" fill="none" xmlns="http://www.w3.org/2000/svg">
<circle cx="22.5" cy="22.5" r="22.5" fill="white"/>
<path fill-rule="evenodd" clip-rule="evenodd" d="M23 33.9167C16.4186 33.9167 11.0833 28.5814 11.0833 22C11.0833 15.4186 16.4186 10.0834 23 10.0834C29.5814 10.0834 34.9167 15.4186 34.9167 22C34.9167 28.5814 29.5814 33.9167 23 33.9167ZM23 31.75C28.3848 31.75 32.75 27.3848 32.75 22C32.75 16.6153 28.3848 12.25 23 12.25C17.6152 12.25 13.25 16.6153 13.25 22C13.25 27.3848 17.6152 31.75 23 31.75ZM26.5673 17.984L20.8333 23.718L18.3494 21.234L16.8173 22.7661L20.8333 26.7821L28.0994 19.5161L26.5673 17.984Z" fill="black"/>
</svg>
