<svg width="45" height="45" viewBox="0 0 45 45" fill="none" xmlns="http://www.w3.org/2000/svg">
<path fill-rule="evenodd" clip-rule="evenodd" d="M16.875 1.875H28.125C30.1961 1.875 31.875 3.55393 31.875 5.625V7.5H37.5C39.5711 7.5 41.25 9.17893 41.25 11.25V15C41.25 17.0711 39.5711 18.75 37.5 18.75H37.3498L35.625 39.375C35.625 41.4461 33.9461 43.125 31.875 43.125H13.125C11.0539 43.125 9.37501 41.4461 9.38148 39.5307L7.64976 18.75H7.5C5.42893 18.75 3.75 17.0711 3.75 15V11.25C3.75 9.17893 5.42893 7.5 7.5 7.5H13.125V5.625C13.125 3.55393 14.8039 1.875 16.875 1.875ZM7.5 11.25H13.125H31.875H37.5V15H7.5V11.25ZM11.4122 18.75H33.5873L31.8815 39.2193L31.8751 39.375H13.1251L11.4122 18.75ZM28.125 5.625V7.5H16.875V5.625H28.125Z" fill="black"/>
</svg>
