<svg width="30" height="30" viewBox="0 0 50 50" fill="none" xmlns="http://www.w3.org/2000/svg">
<path fill-rule="evenodd" clip-rule="evenodd" d="M43.9991 9.39219L46.9464 9.7364L45.6216 12.3916C44.9755 13.6865 44.3287 14.9813 43.6814 16.2762C43.6046 16.5504 43.4697 16.7908 43.2701 17.1039C43.1868 17.2347 42.9019 17.6507 42.8886 17.6707C42.8134 17.7835 42.7578 17.8724 42.7178 17.9437V22.9198C42.7178 35.6531 30.3949 43.7446 18.7574 43.7446C16.3761 43.7446 14.5668 43.6305 12.4951 43.1784C9.08575 42.4344 6.54851 40.9555 5.38746 38.3708L4.19213 35.7097L7.09708 35.4425C9.72503 35.2009 12.0035 34.7002 13.7533 34.0298C8.94954 33.2573 6.25752 31.1474 6.25752 27.1851V25.1018H8.34085C8.79859 25.1018 9.21133 25.0647 9.58032 24.9965C5.97502 22.8409 4.16923 19.3829 4.16923 14.5865C4.16884 14.382 4.16884 14.382 4.16761 14.1634C4.15406 11.7458 4.28392 10.4541 4.94575 8.80536C5.3699 7.74873 5.983 6.77055 6.80814 5.87427L8.38025 4.16663L9.90872 5.91343C14.9457 11.67 19.9249 15.1624 25.0087 15.5848C25.0304 10.273 29.0449 6.25313 34.3841 6.25313C36.8731 6.25313 39.1309 7.1979 40.9052 8.90147C41.8763 9.10102 42.9076 9.26473 43.9991 9.39219ZM39.393 12.8374L38.7544 12.6928L38.3133 12.2088C37.2468 11.0385 35.9082 10.4197 34.3841 10.4197C31.3362 10.4197 29.1753 12.5914 29.1753 15.6281C29.1753 16.1243 29.1625 16.4362 29.1006 16.846C28.854 18.4815 27.9366 19.7947 26.0502 19.7947C19.8043 19.7947 14.1695 16.4487 8.67481 10.7338C8.39154 11.5949 8.32493 12.48 8.33423 14.14C8.33548 14.3621 8.33548 14.3621 8.33592 14.5864C8.33592 18.8531 10.0645 21.1869 14.1573 22.4878L15.6095 22.9494V24.4732C15.6095 26.3211 13.8588 28.0606 11.2973 28.8398C12.4715 29.7306 14.873 30.2114 18.7581 30.2114H20.8415V32.2947C20.8415 35.2796 17.4117 37.6167 12.2308 38.8371C13.9204 39.3548 16.1702 39.5779 18.7574 39.5779C28.3708 39.5779 38.5511 32.8932 38.5511 22.9197V17.7114C38.5511 17.0994 38.7285 16.5681 39.0233 16.0157C39.1385 15.7997 39.2654 15.5938 39.422 15.359C39.4515 15.3148 39.5608 15.1546 39.6477 15.0265L39.8128 14.6963C40.0804 14.1612 40.3478 13.6262 40.6151 13.0911C40.1997 13.0124 39.7923 12.9278 39.393 12.8374Z" fill="black"/>
</svg>
