<svg width="50" height="50" viewBox="0 0 50 50" fill="none" xmlns="http://www.w3.org/2000/svg">
<circle cx="25" cy="25" r="25" fill="#E4E0D5"/>
<path fill-rule="evenodd" clip-rule="evenodd" d="M26.286 16.3334C29.2408 16.3334 32.0663 17.8832 34.6995 20.4296C35.5978 21.2983 36.4105 22.2258 37.1259 23.1536C37.5576 23.7135 37.8641 24.154 38.0319 24.4163L38.4053 25L38.0319 25.5837C37.8641 25.8461 37.5576 26.2866 37.1259 26.8464C36.4105 27.7743 35.5978 28.7017 34.6995 29.5705C32.0663 32.1169 29.2408 33.6667 26.286 33.6667C23.3311 33.6667 20.5057 32.1169 17.8725 29.5705C16.9742 28.7017 16.1615 27.7743 15.446 26.8464C15.0143 26.2866 14.7078 25.8461 14.54 25.5837L14.1667 25L14.54 24.4163C14.7078 24.154 15.0143 23.7135 15.446 23.1536C16.1615 22.2258 16.9742 21.2983 17.8725 20.4296C20.5057 17.8832 23.3311 16.3334 26.286 16.3334ZM35.4101 24.4767C34.7551 23.6272 34.0103 22.7773 33.1933 21.9871C30.9254 19.7939 28.5665 18.5 26.286 18.5C24.0055 18.5 21.6466 19.7939 19.3787 21.9871C18.5616 22.7773 17.8169 23.6272 17.1619 24.4767C17.0204 24.6601 16.8897 24.8352 16.7702 25C16.8897 25.1649 17.0204 25.34 17.1619 25.5234C17.8169 26.3729 18.5616 27.2228 19.3787 28.013C21.6466 30.2061 24.0055 31.5 26.286 31.5C28.5665 31.5 30.9254 30.2061 33.1933 28.013C34.0103 27.2228 34.7551 26.3729 35.4101 25.5234C35.5516 25.34 35.6823 25.1649 35.8018 25C35.6823 24.8352 35.5516 24.6601 35.4101 24.4767ZM21.9526 25C21.9526 27.3933 23.8927 29.3334 26.286 29.3334C28.6792 29.3334 30.6193 27.3933 30.6193 25C30.6193 22.6068 28.6792 20.6667 26.286 20.6667C23.8927 20.6667 21.9526 22.6068 21.9526 25ZM28.4526 25C28.4526 26.1967 27.4826 27.1667 26.286 27.1667C25.0894 27.1667 24.1193 26.1967 24.1193 25C24.1193 23.8034 25.0894 22.8334 26.286 22.8334C27.4826 22.8334 28.4526 23.8034 28.4526 25Z" fill="black"/>
</svg>
