<svg width="45" height="45" viewBox="0 0 45 45" fill="none" xmlns="http://www.w3.org/2000/svg">
<circle cx="22.5" cy="22.5" r="22.5" fill="white"/>
<path fill-rule="evenodd" clip-rule="evenodd" d="M23 35C15.8203 35 10 29.1797 10 22C10 14.8203 15.8203 9 23 9C30.1797 9 36 14.8203 36 22C36 29.1797 30.1797 35 23 35ZM31.7448 28.0564C32.9374 26.3377 33.6363 24.2504 33.6363 22C33.6363 16.1257 28.8743 11.3636 23 11.3636C17.1257 11.3636 12.3636 16.1257 12.3636 22C12.3636 24.2505 13.0625 26.3377 14.2551 28.0564C15.5852 26.2995 18.7107 25.5455 23 25.5455C27.2893 25.5455 30.4148 26.2995 31.7448 28.0564ZM30.0492 29.9652C29.7032 28.7214 27.2183 27.9091 23 27.9091C18.7816 27.9091 16.2967 28.7214 15.9508 29.9652C17.8275 31.6273 20.2959 32.6364 23 32.6364C25.7041 32.6364 28.1724 31.6273 30.0492 29.9652ZM23 14.9091C20.1389 14.9091 18.2727 16.9841 18.2727 19.6364C18.2727 23.6869 20.3538 25.5455 23 25.5455C25.6214 25.5455 27.7273 23.7486 27.7273 19.8727C27.7273 17.1801 25.8531 14.9091 23 14.9091ZM20.6364 19.6364C20.6364 22.3182 21.6033 23.1818 23 23.1818C24.3918 23.1818 25.3636 22.3526 25.3636 19.8727C25.3636 18.3959 24.4367 17.2727 23 17.2727C21.5035 17.2727 20.6364 18.2369 20.6364 19.6364Z" fill="black"/>
</svg>
